# xmcd CD database file
# Copyright (C) 1993-1998 Ti Kan
#
# Track frame offsets:
#	150
#	23345
#	40257
#	61230
#	75380
#	102460
#	131360
#	152395
#	172777
#	186487
#
# Disc length: 2743 seconds
#
# Revision: 1
# Processed by: cddbd v1.4b41PL1 Copyright (c) Steve Scherf et al.
# Submitted via: CDValet v3.31 - Copyright (c) 1997 Greg Leichner
#
DISCID=6a0ab50a
DTITLE=The Magic Of Salsa - CD I  Varios
DYEAR=1900
DGENRE=
TTITLE0=Como Lo Hacen
TTITLE1=Llorarás
TTITLE2=25 Rosas
TTITLE3=Quitate De La Vía Perico
TTITLE4=De Patitas
TTITLE5=La Rueda
TTITLE6=Colombia Te Canto
TTITLE7=Con Velo y Corona
TTITLE8=En Guantánamo
TTITLE9=El Pregonero
EXTD=
EXTT0=
EXTT1=
EXTT2=
EXTT3=
EXTT4=
EXTT5=
EXTT6=
EXTT7=
EXTT8=
EXTT9=
PLAYORDER=
